# xmcd
#
# Track frame offsets:
#	150
#	26949
#	58694
#	93633
#	121602
#	142595
#	172337
#	201816
#	225278
#	239963
#	254791
#	273635
#	293275
#	311070
#	330791
#
# Disc length: 4626
#
# Revision: 1
# Processed by: cddbd v1.5.1PL0 Copyright (c) Steve Scherf et al.
# Submitted via: EasyCDDAExtractor 5.0.5.1
# Normalized: r0:DSETVAR1
#
DISCID=da12100f
DTITLE=Various Artist - DEE JAY MIX CLUB KWIECIEÑ 2003 PART 2
DYEAR=2003
DGENRE=Acapella
TTITLE0=FLASHRIDER - ATTENZIONE
TTITLE1=LAVA AKA TILLMAN UHRMACHER - SPRING TIME
TTITLE2=FRAGMA - MAN IN THE MOON
TTITLE3=PAUL JOCKEY FEAT LARRY - FLY DARUNDARA
TTITLE4=CHER - WHEN THE MONEY'S GONE
TTITLE5=ANNE CLARK - SLEEPER IN METROPOLIS 3000
TTITLE6=ONE-T and COOL-T - THE MAGIC KEY(RMX)
TTITLE7=BOOGIE PIMPS - SALT SHAKER
TTITLE8=EXCELLENCE - WE CAN DANCE
TTITLE9=SIMPLY RED - SUNRISE
TTITLE10=LIL KIM FEAT.CHEEKS - JUMP OFF(RMX)
TTITLE11=SAINT ETIENNE - SOFT LIKE ME
TTITLE12=KCI and JOJO - IT'S ME
TTITLE13=ROYCE DA 5'9'' - MR. BAUER
TTITLE14=LINKIN PARK - SOMEWHERE I BELONG
EXTD=
EXTT0=
EXTT1=
EXTT2=
EXTT3=
EXTT4=
EXTT5=
EXTT6=
EXTT7=
EXTT8=
EXTT9=
EXTT10=
EXTT11=
EXTT12=
EXTT13=
EXTT14=
PLAYORDER=
